<svg width="25" height="25" viewBox="0 0 25 25" fill="none" xmlns="http://www.w3.org/2000/svg">
<path fill-rule="evenodd" clip-rule="evenodd" d="M11.7897 2.48532C14.2393 2.48532 16.2322 4.47824 16.2322 6.92783V7.8612C16.2322 8.2758 15.8957 8.6123 15.4811 8.6123C15.0665 8.6123 14.73 8.2758 14.73 7.8612V6.92783C14.73 5.30545 13.411 3.98752 11.7897 3.98752H6.90752C5.28815 3.98752 3.97022 5.30545 3.97022 6.92783V18.0732C3.97022 19.6945 5.28815 21.0125 6.90752 21.0125H11.8007C13.4151 21.0125 14.73 19.6985 14.73 18.0842V17.1398C14.73 16.7252 15.0665 16.3887 15.4811 16.3887C15.8957 16.3887 16.2322 16.7252 16.2322 17.1398V18.0842C16.2322 20.5278 14.2433 22.5147 11.8007 22.5147H6.90752C4.45994 22.5147 2.46802 20.5227 2.46802 18.0732V6.92783C2.46802 4.47824 4.45994 2.48532 6.90752 2.48532H11.7897ZM19.8816 9.04894L22.8139 11.9682C22.8401 11.9942 22.8635 12.0212 22.8849 12.0497L22.8139 11.9682C22.8494 12.0032 22.881 12.0414 22.9083 12.0822C22.9204 12.1007 22.932 12.1197 22.9428 12.1394C22.9515 12.1547 22.9596 12.1707 22.967 12.187C22.9733 12.2014 22.9794 12.2158 22.985 12.2304C22.9926 12.2494 22.9992 12.269 23.005 12.2888C23.0094 12.3044 23.0134 12.32 23.0169 12.3358C23.0214 12.3549 23.0249 12.3741 23.0277 12.3935C23.0292 12.4061 23.0308 12.4193 23.032 12.4327C23.0343 12.4555 23.0352 12.4777 23.0352 12.5L23.0301 12.5621L23.0281 12.6019C23.0279 12.6036 23.0276 12.6053 23.0274 12.607L23.0352 12.5C23.0352 12.5556 23.0291 12.6106 23.0171 12.6642C23.0134 12.68 23.0094 12.6956 23.0049 12.711C22.9992 12.731 22.9926 12.7506 22.9852 12.7698C22.9794 12.7842 22.9733 12.7986 22.9669 12.8128C22.9596 12.8293 22.9515 12.8453 22.9429 12.861C22.932 12.8802 22.9204 12.8993 22.908 12.9178C22.9009 12.9288 22.8932 12.9397 22.8852 12.9503C22.8614 12.9817 22.8354 13.0112 22.8073 13.0385L19.8816 15.952C19.7354 16.0983 19.5431 16.1714 19.3519 16.1714C19.1596 16.1714 18.9663 16.0983 18.8201 15.95C18.5276 15.6556 18.5286 15.1809 18.8221 14.8885L20.4644 13.2511H10.2252C9.81057 13.2511 9.47408 12.9146 9.47408 12.5C9.47408 12.0854 9.81057 11.7489 10.2252 11.7489H20.4664L18.8221 10.1125C18.5286 9.82007 18.5266 9.34537 18.8201 9.05094C19.1125 8.75651 19.5872 8.75651 19.8816 9.04894Z" fill="black"/>
</svg>
